
          <svg
            data-v-70b83f88=""
            version="1.0"
            xmlns="http://www.w3.org/2000/svg"
            xmlns:xlink="http://www.w3.org/1999/xlink"
            width="209"
            height="48"
            preserveAspectRatio="xMidYMid meet"
            color-interpolation-filters="sRGB"
            style="margin: auto">
            <!-- <rect data-v-70b83f88="" x="0" y="0" width="100%" height="100%" fill="#ffffff" fill-opacity="0" class="background"></rect> -->
            <!-- <rect data-v-70b83f88="" x="0" y="0" width="100%" height="100%" fill="url(#watermark)" fill-opacity="1" class="watermarklayer"></rect> -->
            <g data-v-70b83f88="" fill="#333" class="basesvg">
              <g data-gra="path-name" fill-rule="" class="tp-name" fill="url(#73a09855-94a0-4a49-925f-8b883a4e7aea)" opacity="1" transform="matrix(1,0,0,1,0,0)">
                <g transform="scale(1.3600000000000003)">
                  <g>
                    <path
                      d="M4.08-20.09L9.57-20.09 9.57-1.61Q9.57 1.28 9.04 2.91 8.5 4.54 7.18 5.57L7.18 5.57Q5.36 7.01 1.49 7.14L1.49 7.14-0.95 7.14-0.95 2.97 0.45 2.97Q2.85 2.93 3.51 2.06L3.51 2.06Q3.84 1.65 3.96 1.01 4.08 0.37 4.08-1.16L4.08-1.16 4.08-20.09ZM9.57-22.32L4.08-22.32 4.08-27.52 9.57-27.52 9.57-22.32ZM24.22-20.38L24.22-20.38Q29.79-20.38 32.43-17.17L32.43-17.17Q34.87-14.24 34.87-9.78L34.87-9.78Q34.87-5.08 31.81-2.27L31.81-2.27Q29.01 0.29 24.14 0.29L24.14 0.29Q19.1 0.29 16.26-2.6L16.26-2.6Q13.62-5.2 13.62-10.19L13.62-10.19Q13.62-14.4 16.13-17.21L16.13-17.21Q18.94-20.34 24.22-20.38ZM24.26-16.17L24.26-16.17Q19.27-16.17 19.27-9.99L19.27-9.99Q19.27-7.47 20.09-6.15L20.09-6.15Q21.46-3.92 24.3-3.92L24.3-3.92Q29.21-3.92 29.21-10.07L29.21-10.07Q29.21-16.09 24.26-16.17ZM47.58-4.29L52.11-4.29 52.11-20.09 57.64-20.09 57.64-0.41Q57.64 3.51 55.58 5.32 53.52 7.14 49.02 7.14L49.02 7.14 39.16 7.14 39.16 2.85 49.02 2.85Q50.79 2.85 51.33 2.48L51.33 2.48Q51.74 2.23 51.87 1.84 51.99 1.44 52.11 0L52.11 0 47.2 0Q38.7 0.21 39.16-8.87L39.16-8.87 39.16-20.09 44.69-20.09 44.69-9.41Q44.69-6.27 45.24-5.28 45.8-4.29 47.58-4.29L47.58-4.29ZM62.59 7.55L62.59-20.09 72.25-20.09Q75.06-20.09 76.5-19.74 77.94-19.39 79.26-18.36L79.26-18.36Q82.85-15.56 82.85-9.74L82.85-9.74Q82.85-5.32 80.21-2.6L80.21-2.6Q78.89-1.24 77.18-0.62 75.47 0 72.99 0L72.99 0 68.12 0 68.12 7.55 62.59 7.55ZM71.88-15.8L68.12-15.8 68.12-4.29 71.51-4.29Q74.19-4.29 75.43-5.45L75.43-5.45Q77.16-6.97 77.16-10.15L77.16-10.15Q77.16-12.87 75.8-14.34 74.44-15.8 71.88-15.8L71.88-15.8ZM94-12.21L100.76-12.21Q100.76-14.32 99.92-15.06 99.07-15.8 96.55-15.8L96.55-15.8 87.23-15.8 87.23-20.09 96.55-20.09Q99.07-20.09 100.02-19.99 100.97-19.89 101.96-19.6L101.96-19.6Q106.54-17.87 106.29-11.31L106.29-11.31 106.29 0 94.66 0Q91.52 0 90.32-0.19 89.13-0.37 88.22-0.95L88.22-0.95Q85.78-2.6 85.78-5.94L85.78-5.94Q85.78-7.96 86.75-9.55 87.72-11.14 89.33-11.72L89.33-11.72Q90.74-12.21 94-12.21L94-12.21ZM100.76-4.29L100.76-7.92 94.41-7.92 93.46-7.92Q92.51-7.92 91.95-7.43 91.4-6.93 91.4-6.07L91.4-6.07Q91.4-5.12 92.08-4.7 92.76-4.29 94.41-4.29L94.41-4.29 100.76-4.29ZM120.4-20.09L130.72-20.09 130.72-0.12Q130.72 1.57 130.33 2.89 129.93 4.21 129.19 5.12L129.19 5.12Q128.24 6.27 126.9 6.71 125.56 7.14 123 7.14L123 7.14 111.99 7.14 111.99 2.85 122.26 2.85Q124.08 2.85 124.63 2.29 125.19 1.73 125.19 0L125.19 0 120.11 0Q117.68 0 116.09-0.52 114.5-1.03 113.22-2.23L113.22-2.23Q110.21-5.08 110.21-10.07L110.21-10.07Q110.21-15.76 113.88-18.36L113.88-18.36Q115.2-19.31 116.67-19.7 118.13-20.09 120.4-20.09L120.4-20.09ZM125.19-4.29L125.19-15.8 120.61-15.8Q115.82-15.8 115.82-10.03L115.82-10.03Q115.82-7.22 117.12-5.76 118.42-4.29 120.9-4.29L120.9-4.29 125.19-4.29ZM140.91-12.21L152.55-12.21 152.55-7.92 140.91-7.92Q141.08-5.94 142.19-5.12 143.3-4.29 145.82-4.29L145.82-4.29 152.55-4.29 152.55 0 145.2 0Q142.81 0 141.3-0.43 139.8-0.87 138.48-1.86L138.48-1.86Q134.8-4.7 134.8-10.32L134.8-10.32Q134.8-13.95 136.74-16.67L136.74-16.67Q138.06-18.53 139.92-19.31 141.78-20.09 144.79-20.09L144.79-20.09 152.55-20.09 152.55-15.8 145.2-15.8Q142.93-15.8 142.02-15.04 141.12-14.28 140.91-12.21L140.91-12.21Z"
                      transform="translate(0.9500000476837158, 27.520000457763672)"></path>
                  </g>
                  <!---->
                  <!---->
                  <!---->
                  <!---->
                  <!---->
                  <!---->
                  <!---->
                </g>
              </g>
              <!---->
            </g>
            <defs v-gra="od">
              <linearGradient x1="0" y1="1" x2="0" y2="0" id="73a09855-94a0-4a49-925f-8b883a4e7aea">
                <stop offset="0%" stop-color="#ff0844"></stop>
                <stop offset="100%" stop-color="#ffb199"></stop>
              </linearGradient>
              <filter id="42443b3f1de60f6b6fd3b6a9844b4764" filterUnits="userSpaceOnUse">
                <feColorMatrix type="matrix" values="0 0 0 0 0.99609375  0 0 0 0 0.99609375  0 0 0 0 0.99609375  0 0 0 1 0"></feColorMatrix>
              </filter>
            </defs>
          </svg>